HIERARCHY
ROOT Hips
{
  OFFSET 8.76364 92.3516 -276.427
  CHANNELS 6 Xposition Yposition Zposition Zrotation Xrotation Yrotation
  JOINT Spine
  {
    OFFSET 0 8.18577 0
    CHANNELS 6 Xposition Yposition Zposition Zrotation Xrotation Yrotation
    JOINT Spine1
    {
      OFFSET 0 23.9492 0
      CHANNELS 6 Xposition Yposition Zposition Zrotation Xrotation Yrotation
      JOINT Neck
      {
        OFFSET 0 23.8508 2.16826
        CHANNELS 6 Xposition Yposition Zposition Zrotation Xrotation Yrotation
        JOINT Head
        {
          OFFSET 0 13.9757 -1.99653
          CHANNELS 6 Xposition Yposition Zposition Zrotation Xrotation Yrotation
          End Site
          {
            OFFSET 0 24.9566 0
          }
        }
      }
      JOINT LeftShoulder
      {
        OFFSET 3.97939 22.162 -0.249083
        CHANNELS 6 Xposition Yposition Zposition Zrotation Xrotation Yrotation
        JOINT LeftArm
        {
          OFFSET 10.8129 0 0
          CHANNELS 6 Xposition Yposition Zposition Zrotation Xrotation Yrotation
          JOINT LeftForeArm
          {
            OFFSET 31.6972 0 0
            CHANNELS 6 Xposition Yposition Zposition Zrotation Xrotation Yrotation
            JOINT LeftHand
            {
              OFFSET 27.0474 0 0
              CHANNELS 6 Xposition Yposition Zposition Zrotation Xrotation Yrotation
              End Site
              {
                OFFSET 14.974 0 0
              }
            }
          }
        }
      }
      JOINT RightShoulder
      {
        OFFSET -4.00645 22.162 -0.249083
        CHANNELS 6 Xposition Yposition Zposition Zrotation Xrotation Yrotation
        JOINT RightArm
        {
          OFFSET -10.8129 0 0
          CHANNELS 6 Xposition Yposition Zposition Zrotation Xrotation Yrotation
          JOINT RightForeArm
          {
            OFFSET -31.6972 0 0
            CHANNELS 6 Xposition Yposition Zposition Zrotation Xrotation Yrotation
            JOINT RightHand
            {
              OFFSET -27.0474 0 0
              CHANNELS 6 Xposition Yposition Zposition Zrotation Xrotation Yrotation
              End Site
              {
                OFFSET -14.974 0 0
              }
            }
          }
        }
      }
    }
  }
  JOINT LeftUpLeg
  {
    OFFSET 9.98265 0 0
    CHANNELS 6 Xposition Yposition Zposition Zrotation Xrotation Yrotation
    JOINT LeftLeg
    {
      OFFSET 0 -38.5116 0
      CHANNELS 6 Xposition Yposition Zposition Zrotation Xrotation Yrotation
      JOINT LeftFoot
      {
        OFFSET 0 -44.7893 0
        CHANNELS 6 Xposition Yposition Zposition Zrotation Xrotation Yrotation
        JOINT LeftToeBase
        {
          OFFSET 0 -6.48872 14.974
          CHANNELS 6 Xposition Yposition Zposition Zrotation Xrotation Yrotation
          End Site
          {
            OFFSET 0 0 3.99306
          }
        }
      }
    }
  }
  JOINT RightUpLeg
  {
    OFFSET -9.98265 0 0
    CHANNELS 6 Xposition Yposition Zposition Zrotation Xrotation Yrotation
    JOINT RightLeg
    {
      OFFSET 0 -38.5116 0
      CHANNELS 6 Xposition Yposition Zposition Zrotation Xrotation Yrotation
      JOINT RightFoot
      {
        OFFSET 0 -44.7893 0
        CHANNELS 6 Xposition Yposition Zposition Zrotation Xrotation Yrotation
        JOINT RightToeBase
        {
          OFFSET 0 -6.48872 14.974
          CHANNELS 6 Xposition Yposition Zposition Zrotation Xrotation Yrotation
          End Site
          {
            OFFSET 0 0 3.99306
          }
        }
      }
    }
  }
}
MOTION
Frames:	6
Frame Time:	0.0333333
-6.07462 93.4645 195.142 -0.641705 2.50213 177.426 -8.88178e-016 8.18577 -2.84217e-014 1.46137 -3.98837 0.3787 -8.88178e-016 23.9492 0 -0.53868 -0.935113 0.323587 -8.88178e-016 23.8508 2.16826 2.24682 18.0413 -5.78384 -1.77636e-015 13.9757 -1.99653 3.03943 -6.67648 -5.37506 3.97939 22.162 -0.249083 15.6885 -1.03846 -1.81097 10.8129 2.84217e-014 -2.84217e-014 -15.1932 6.24705 -4.63657 31.6972 0 2.84217e-014 0.867251 5.03431 6.04946 27.0474 0 0 -11.1878 4.87242 1.19011 -4.00645 22.162 -0.249083 -18.8663 -4.50915 2.06832 -10.8129 -2.84217e-014 0 21.0737 -9.99787 -0.976558 -31.6972 2.84217e-014 0 3.07271 8.76325 3.32832 -27.0474 -2.84217e-014 2.84217e-014 -11.7421 9.9117 -12.1406 9.98265 -1.42109e-014 0 4.15237 8.66285 3.93946 3.55271e-015 -38.5116 0 -1.92489 4.00624 4.34398 0 -44.7893 -2.84217e-014 -4.37181 -8.37307 9.99322 0 -6.48872 14.974 4.96962e-017 -1.98785e-016 6.36111e-015 -9.98265 0 -2.84217e-014 -4.6063 5.63615 -5.9339 0 -38.5116 0 -0.876214 6.28706 4.08703 0 -44.7893 0 5.44256 -8.63685 -19.0855 1.42109e-014 -6.48872 14.974 -1.65521e-032 2.98177e-016 3.18055e-015 
-6.22673 93.4251 195.052 -0.65362 2.52722 177.185 -1.77636e-015 8.18577 0 1.43581 -4.05393 0.470868 -8.88178e-016 23.9492 0 -0.480208 -0.88385 0.416337 1.77636e-015 23.8508 2.16826 2.19988 18.1236 -5.65595 3.55271e-015 13.9757 -1.99653 2.92915 -6.76801 -5.26063 3.97939 22.162 -0.249083 15.6679 -1.10405 -1.93189 10.8129 0 -2.84217e-014 -15.05 5.97051 -4.57311 31.6972 0 0 0.79817 5.17007 6.07833 27.0474 2.84217e-014 0 -11.0819 5.03286 0.982175 -4.00645 22.162 -0.249083 -18.7761 -4.46696 2.11047 -10.8129 -2.84217e-014 0 21.0439 -9.96446 -0.851839 -31.6972 0 0 3.00611 8.86876 3.44141 -27.0474 2.84217e-014 -2.84217e-014 -11.875 10.0268 -12.11 9.98265 1.42109e-014 0 3.91149 8.996 3.70099 -7.10543e-015 -38.5116 0 -1.82157 3.61133 4.87413 0 -44.7893 0 -4.31843 -8.40131 9.93935 1.42109e-014 -6.48872 14.974 1.49089e-016 0 -0 -9.98265 1.42109e-014 0 -4.78031 5.62584 -6.0362 0 -38.5116 2.84217e-014 -0.868334 6.35268 4.3078 0 -44.7893 0 5.51662 -8.72325 -18.961 -1.42109e-014 -6.48872 14.974 1.49089e-016 9.93923e-017 3.18055e-015 
-6.32462 93.4192 194.998 -0.687738 2.39854 177.132 -1.77636e-015 8.18577 0 1.3263 -4.34838 0.42124 -1.77636e-015 23.9492 -2.84217e-014 -0.345232 -0.657677 0.368945 -8.88178e-016 23.8508 2.16826 2.05874 17.9493 -5.47748 0 13.9757 -1.99653 2.80414 -6.47347 -5.11282 3.97939 22.162 -0.249083 15.6607 -1.21049 -1.90656 10.8129 -2.84217e-014 2.84217e-014 -15.0037 5.95868 -4.5121 31.6972 0 2.84217e-014 0.84665 5.01551 6.03902 27.0474 0 2.84217e-014 -11.045 4.86608 1.08845 -4.00645 22.162 -0.249083 -18.8244 -4.49225 2.16782 -10.8129 2.84217e-014 0 21.1899 -9.77985 -0.697307 -31.6972 0 0 2.89158 8.84361 3.63454 -27.0474 -2.84217e-014 0 -11.874 9.99933 -12.1018 9.98265 1.42109e-014 -2.84217e-014 3.80222 9.11598 3.46668 -3.55271e-015 -38.5116 0 -1.84688 3.2393 5.15192 0 -44.7893 0 -4.24809 -8.35209 9.95099 0 -6.48872 14.974 -1.10348e-032 -1.98785e-016 -3.18055e-015 -9.98265 0 0 -4.8872 5.54749 -5.97575 0 -38.5116 0 -0.844957 6.31106 4.42 0 -44.7893 0 5.57312 -8.77746 -19.0733 -1.42109e-014 -6.48872 14.974 4.96962e-017 -9.93923e-017 -3.18055e-015 
-6.39836 93.4243 194.955 -0.704413 2.26567 177.194 -8.88178e-016 8.18577 0 1.27375 -4.50135 0.355329 0 23.9492 0 -0.353766 -0.6753 0.303206 0 23.8508 2.16826 2.0542 17.9158 -5.37066 -1.77636e-015 13.9757 -1.99653 2.76146 -6.20788 -5.01703 3.97939 22.162 -0.249083 15.6823 -1.15913 -1.93208 10.8129 0 -2.84217e-014 -14.9603 5.85771 -4.54833 31.6972 0 0 0.867926 4.95665 6.01986 27.0474 -2.84217e-014 2.84217e-014 -11.2639 4.8075 1.05484 -4.00645 22.162 -0.249083 -18.7391 -4.49763 2.26602 -10.8129 2.84217e-014 0 21.2589 -10.0018 -0.694998 -31.6972 2.84217e-014 2.84217e-014 2.86962 8.95121 3.69858 -27.0474 -2.84217e-014 0 -11.5459 10.0615 -12.0072 9.98265 1.42109e-014 0 3.80449 9.08885 3.30658 -7.10543e-015 -38.5116 2.84217e-014 -1.9591 3.08491 5.21861 0 -44.7893 0 -4.16289 -8.29752 9.98425 1.42109e-014 -6.48872 14.974 4.96962e-017 0 -0 -9.98265 1.42109e-014 0 -4.93658 5.57242 -5.79799 0 -38.5116 0 -0.803484 6.09431 4.20218 0 -44.7893 0 5.62782 -8.6801 -19.118 0 -6.48872 14.974 -1.98785e-016 0 -3.18055e-015 
-6.466 93.438 194.933 -0.717905 2.18222 177.349 8.88178e-016 8.18577 0 1.29631 -4.5707 0.305981 8.88178e-016 23.9492 0 -0.538578 -0.584089 0.251439 8.88178e-016 23.8508 2.16826 2.33602 17.678 -5.28954 -3.55271e-015 13.9757 -1.99653 2.55869 -5.99086 -4.97772 3.97939 22.162 -0.249083 15.8473 -1.25657 -1.94948 10.8129 2.84217e-014 0 -15.0135 5.86498 -4.64868 31.6972 0 0 0.865139 4.93812 5.97835 27.0474 2.84217e-014 0 -11.2009 4.78689 1.08607 -4.00645 22.162 -0.249083 -18.6696 -4.481 2.18639 -10.8129 0 0 21.4386 -10.0295 -0.720442 -31.6972 0 2.84217e-014 2.8741 8.89493 3.74585 -27.0474 0 2.84217e-014 -11.7897 10.0397 -12.1047 9.98265 1.42109e-014 2.84217e-014 3.81002 8.95385 3.39901 0 -38.5116 2.84217e-014 -2.00658 3.16726 4.91028 0 -44.7893 0 -4.13478 -8.31219 10.043 0 -6.48872 14.974 0 0 -6.36111e-015 -9.98265 1.42109e-014 0 -4.95721 5.70626 -5.87003 -7.10543e-015 -38.5116 0 -0.795731 5.77655 4.07603 0 -44.7893 0 5.69982 -8.53765 -19.0853 -1.42109e-014 -6.48872 14.974 -3.47873e-016 0 3.18055e-015 
-6.51769 93.4437 194.951 -0.714707 2.035 177.482 0 8.18577 2.84217e-014 1.23612 -4.55004 0.266101 -2.66454e-015 23.9492 0 -0.463259 -0.698344 0.214418 0 23.8508 2.16826 2.33209 17.7145 -5.1894 -1.77636e-015 13.9757 -1.99653 2.58702 -6.14494 -4.86383 3.97939 22.162 -0.249083 15.7359 -1.25243 -2.05939 10.8129 2.84217e-014 0 -15.0152 5.87492 -4.64866 31.6972 0 0 0.898458 4.91672 5.899 27.0474 0 0 -11.2022 4.75699 1.16129 -4.00645 22.162 -0.249083 -18.7156 -4.43935 2.17105 -10.8129 0 0 21.4755 -10.2867 -0.78438 -31.6972 -2.84217e-014 0 3.00892 8.96346 3.57015 -27.0474 0 2.84217e-014 -11.8165 10.1086 -12.0813 9.98265 -1.42109e-014 2.84217e-014 3.79696 8.68034 3.75902 0 -38.5116 0 -1.95794 3.34744 4.42493 0 -44.7893 0 -4.09913 -8.36967 10.0521 1.42109e-014 -6.48872 14.974 -1.49089e-016 0 -0 -9.98265 0 0 -4.92302 5.78688 -5.23542 0 -38.5116 2.84217e-014 -0.764954 5.38333 3.30203 -3.55271e-015 -44.7893 0 5.77002 -8.35908 -19.1121 -1.42109e-014 -6.48872 14.974 -4.96962e-017 9.93923e-017 6.36111e-015 
